<mxfile host="app.diagrams.net" modified="2023-08-04T06:47:58.691Z" agent="Mozilla/5.0 (Macintosh; Intel Mac OS X 10_15_7) AppleWebKit/537.36 (KHTML, like Gecko) Chrome/115.0.0.0 Safari/537.36" etag="TDXGEuvNsvSEC9vmSNV2" version="21.6.2" type="github">
  <diagram name="第 1 页" id="zNaxgnwMQSJkoyGX66Ts">
    <mxGraphModel dx="2409" dy="364" grid="0" gridSize="10" guides="1" tooltips="1" connect="1" arrows="1" fold="1" page="0" pageScale="1" pageWidth="827" pageHeight="1169" math="0" shadow="0">
      <root>
        <mxCell id="0" />
        <mxCell id="1" parent="0" />
        <mxCell id="Dbg0EiFJ-UL5OsCgIPF2-3" value="&lt;div style=&quot;border-color: var(--border-color); text-align: left;&quot;&gt;要求：&lt;/div&gt;&lt;div style=&quot;border-color: var(--border-color); text-align: left;&quot;&gt;输入存在，数据库存在：更新&lt;/div&gt;&lt;div style=&quot;border-color: var(--border-color); text-align: left;&quot;&gt;输入不存在，数据库不存在：不变&lt;/div&gt;输入存在，数据库不存在 ：数据库新增相应数据&lt;br&gt;&lt;div style=&quot;text-align: left;&quot;&gt;输入不存在，数据库存在：删除数据库相应数据&lt;/div&gt;&lt;br&gt;&amp;nbsp;" style="text;html=1;align=center;verticalAlign=middle;resizable=0;points=[];autosize=1;strokeColor=none;fillColor=none;" vertex="1" parent="1">
          <mxGeometry x="-114" y="511" width="273" height="113" as="geometry" />
        </mxCell>
        <mxCell id="Dbg0EiFJ-UL5OsCgIPF2-4" value="注：周和的排列组合是要新增或更新的所有数据alldata" style="text;html=1;align=center;verticalAlign=middle;resizable=0;points=[];autosize=1;strokeColor=none;fillColor=none;" vertex="1" parent="1">
          <mxGeometry x="189" y="1159" width="305" height="26" as="geometry" />
        </mxCell>
        <mxCell id="Dbg0EiFJ-UL5OsCgIPF2-17" style="rounded=0;orthogonalLoop=1;jettySize=auto;html=1;exitX=0;exitY=1;exitDx=0;exitDy=0;entryX=1;entryY=0;entryDx=0;entryDy=0;" edge="1" parent="1" source="Dbg0EiFJ-UL5OsCgIPF2-6" target="Dbg0EiFJ-UL5OsCgIPF2-9">
          <mxGeometry relative="1" as="geometry" />
        </mxCell>
        <mxCell id="Dbg0EiFJ-UL5OsCgIPF2-18" style="edgeStyle=none;shape=connector;rounded=0;orthogonalLoop=1;jettySize=auto;html=1;exitX=1;exitY=1;exitDx=0;exitDy=0;labelBackgroundColor=default;strokeColor=default;fontFamily=Helvetica;fontSize=11;fontColor=default;endArrow=classic;" edge="1" parent="1" source="Dbg0EiFJ-UL5OsCgIPF2-6" target="Dbg0EiFJ-UL5OsCgIPF2-11">
          <mxGeometry relative="1" as="geometry" />
        </mxCell>
        <mxCell id="Dbg0EiFJ-UL5OsCgIPF2-6" value="根据new_data判断是否在数据库中" style="rhombus;whiteSpace=wrap;html=1;" vertex="1" parent="1">
          <mxGeometry x="342" y="470" width="156" height="141" as="geometry" />
        </mxCell>
        <mxCell id="Dbg0EiFJ-UL5OsCgIPF2-9" value="deleted = 0" style="ellipse;whiteSpace=wrap;html=1;" vertex="1" parent="1">
          <mxGeometry x="170" y="691" width="120" height="80" as="geometry" />
        </mxCell>
        <mxCell id="Dbg0EiFJ-UL5OsCgIPF2-19" style="edgeStyle=none;shape=connector;rounded=0;orthogonalLoop=1;jettySize=auto;html=1;exitX=0;exitY=1;exitDx=0;exitDy=0;entryX=0.5;entryY=0;entryDx=0;entryDy=0;labelBackgroundColor=default;strokeColor=default;fontFamily=Helvetica;fontSize=11;fontColor=default;endArrow=classic;" edge="1" parent="1" source="Dbg0EiFJ-UL5OsCgIPF2-11" target="Dbg0EiFJ-UL5OsCgIPF2-12">
          <mxGeometry relative="1" as="geometry" />
        </mxCell>
        <mxCell id="Dbg0EiFJ-UL5OsCgIPF2-20" style="edgeStyle=none;shape=connector;rounded=0;orthogonalLoop=1;jettySize=auto;html=1;exitX=1;exitY=1;exitDx=0;exitDy=0;labelBackgroundColor=default;strokeColor=default;fontFamily=Helvetica;fontSize=11;fontColor=default;endArrow=classic;" edge="1" parent="1" source="Dbg0EiFJ-UL5OsCgIPF2-11" target="Dbg0EiFJ-UL5OsCgIPF2-14">
          <mxGeometry relative="1" as="geometry" />
        </mxCell>
        <mxCell id="Dbg0EiFJ-UL5OsCgIPF2-11" value="根据old-data查找" style="rhombus;whiteSpace=wrap;html=1;" vertex="1" parent="1">
          <mxGeometry x="544" y="655" width="165" height="152" as="geometry" />
        </mxCell>
        <mxCell id="Dbg0EiFJ-UL5OsCgIPF2-12" value="更新" style="ellipse;whiteSpace=wrap;html=1;" vertex="1" parent="1">
          <mxGeometry x="418" y="924" width="120" height="80" as="geometry" />
        </mxCell>
        <mxCell id="Dbg0EiFJ-UL5OsCgIPF2-13" value="新增" style="ellipse;whiteSpace=wrap;html=1;" vertex="1" parent="1">
          <mxGeometry x="640" y="1088" width="120" height="80" as="geometry" />
        </mxCell>
        <mxCell id="Dbg0EiFJ-UL5OsCgIPF2-21" style="edgeStyle=none;shape=connector;rounded=0;orthogonalLoop=1;jettySize=auto;html=1;exitX=0;exitY=1;exitDx=0;exitDy=0;entryX=0.5;entryY=0;entryDx=0;entryDy=0;labelBackgroundColor=default;strokeColor=default;fontFamily=Helvetica;fontSize=11;fontColor=default;endArrow=classic;" edge="1" parent="1" source="Dbg0EiFJ-UL5OsCgIPF2-14" target="Dbg0EiFJ-UL5OsCgIPF2-13">
          <mxGeometry relative="1" as="geometry" />
        </mxCell>
        <mxCell id="Dbg0EiFJ-UL5OsCgIPF2-22" style="edgeStyle=none;shape=connector;rounded=0;orthogonalLoop=1;jettySize=auto;html=1;exitX=1;exitY=1;exitDx=0;exitDy=0;entryX=0.5;entryY=0;entryDx=0;entryDy=0;labelBackgroundColor=default;strokeColor=default;fontFamily=Helvetica;fontSize=11;fontColor=default;endArrow=classic;" edge="1" parent="1" source="Dbg0EiFJ-UL5OsCgIPF2-14" target="Dbg0EiFJ-UL5OsCgIPF2-15">
          <mxGeometry relative="1" as="geometry" />
        </mxCell>
        <mxCell id="Dbg0EiFJ-UL5OsCgIPF2-14" value="判断是否在alldata中" style="rhombus;whiteSpace=wrap;html=1;" vertex="1" parent="1">
          <mxGeometry x="760" y="869" width="141" height="131" as="geometry" />
        </mxCell>
        <mxCell id="Dbg0EiFJ-UL5OsCgIPF2-15" value="删除" style="ellipse;whiteSpace=wrap;html=1;" vertex="1" parent="1">
          <mxGeometry x="928" y="1088" width="120" height="80" as="geometry" />
        </mxCell>
        <mxCell id="Dbg0EiFJ-UL5OsCgIPF2-23" value="Y" style="text;html=1;align=center;verticalAlign=middle;resizable=0;points=[];autosize=1;strokeColor=none;fillColor=none;fontSize=11;fontFamily=Helvetica;fontColor=default;" vertex="1" parent="1">
          <mxGeometry x="267" y="609" width="26" height="26" as="geometry" />
        </mxCell>
        <mxCell id="Dbg0EiFJ-UL5OsCgIPF2-24" value="Y" style="text;html=1;align=center;verticalAlign=middle;resizable=0;points=[];autosize=1;strokeColor=none;fillColor=none;fontSize=11;fontFamily=Helvetica;fontColor=default;" vertex="1" parent="1">
          <mxGeometry x="447" y="801" width="26" height="26" as="geometry" />
        </mxCell>
        <mxCell id="Dbg0EiFJ-UL5OsCgIPF2-25" value="Y" style="text;html=1;align=center;verticalAlign=middle;resizable=0;points=[];autosize=1;strokeColor=none;fillColor=none;fontSize=11;fontFamily=Helvetica;fontColor=default;" vertex="1" parent="1">
          <mxGeometry x="683" y="986" width="26" height="26" as="geometry" />
        </mxCell>
        <mxCell id="Dbg0EiFJ-UL5OsCgIPF2-26" value="N" style="text;html=1;align=center;verticalAlign=middle;resizable=0;points=[];autosize=1;strokeColor=none;fillColor=none;fontSize=11;fontFamily=Helvetica;fontColor=default;" vertex="1" parent="1">
          <mxGeometry x="530" y="592" width="27" height="26" as="geometry" />
        </mxCell>
        <mxCell id="Dbg0EiFJ-UL5OsCgIPF2-27" value="N" style="text;html=1;align=center;verticalAlign=middle;resizable=0;points=[];autosize=1;strokeColor=none;fillColor=none;fontSize=11;fontFamily=Helvetica;fontColor=default;" vertex="1" parent="1">
          <mxGeometry x="775" y="796" width="27" height="26" as="geometry" />
        </mxCell>
        <mxCell id="Dbg0EiFJ-UL5OsCgIPF2-28" value="N" style="text;html=1;align=center;verticalAlign=middle;resizable=0;points=[];autosize=1;strokeColor=none;fillColor=none;fontSize=11;fontFamily=Helvetica;fontColor=default;" vertex="1" parent="1">
          <mxGeometry x="960" y="986" width="27" height="26" as="geometry" />
        </mxCell>
      </root>
    </mxGraphModel>
  </diagram>
</mxfile>
